<svg xmlns="http://www.w3.org/2000/svg" height="512pt" version="1.1" viewBox="0 -10 512 511" width="512pt">
<g id="surface1">
<path d="M 0 341.5 L 512 341.5 L 512 491.5 L 0 491.5 Z M 0 341.5 " style=" stroke:none;fill-rule:nonzero;fill:rgb(0%,37.254902%,88.235294%);fill-opacity:1;" />
<path d="M 256 341.5 L 512 341.5 L 512 491.5 L 256 491.5 Z M 256 341.5 " style=" stroke:none;fill-rule:nonzero;fill:rgb(0%,25.882353%,61.568627%);fill-opacity:1;" />
<path d="M 455.480469 221.5 L 56.519531 221.5 L 0 340.488281 L 0 371.5 L 512 371.5 L 512 340.488281 Z M 455.480469 221.5 " style=" stroke:none;fill-rule:nonzero;fill:rgb(14.901961%,50.980392%,100%);fill-opacity:1;" />
<path d="M 455.480469 221.5 L 256 221.5 L 256 371.5 L 512 371.5 L 512 340.488281 Z M 455.480469 221.5 " style=" stroke:none;fill-rule:nonzero;fill:rgb(0%,37.254902%,88.235294%);fill-opacity:1;" />
<path d="M 256 0.5 C 181.285156 0.5 120.5 61.285156 120.5 136 C 120.5 181.574219 143.199219 223.820312 181.21875 249 C 203.414062 263.71875 229.273438 271.5 256 271.5 C 282.726562 271.5 308.585938 263.71875 330.773438 249.003906 C 368.800781 223.820312 391.5 181.574219 391.5 136 C 391.5 61.285156 330.714844 0.5 256 0.5 Z M 256 0.5 " style=" stroke:none;fill-rule:nonzero;fill:rgb(100%,87.058824%,33.333333%);fill-opacity:1;" />
<path d="M 256 0.5 L 256 271.5 C 282.726562 271.5 308.585938 263.71875 330.773438 249.003906 C 368.800781 223.820312 391.5 181.574219 391.5 136 C 391.5 61.285156 330.714844 0.5 256 0.5 Z M 256 0.5 " style=" stroke:none;fill-rule:nonzero;fill:rgb(100%,62.352941%,13.333333%);fill-opacity:1;" />
<path d="M 256 50.5 C 208.855469 50.5 170.5 88.855469 170.5 136 C 170.5 183.144531 208.855469 221.5 256 221.5 C 303.144531 221.5 341.5 183.144531 341.5 136 C 341.5 88.855469 303.144531 50.5 256 50.5 Z M 256 50.5 " style=" stroke:none;fill-rule:nonzero;fill:rgb(100%,62.352941%,13.333333%);fill-opacity:1;" />
<path d="M 256 50.5 L 256 221.5 C 303.144531 221.5 341.5 183.144531 341.5 136 C 341.5 88.855469 303.144531 50.5 256 50.5 Z M 256 50.5 " style=" stroke:none;fill-rule:nonzero;fill:rgb(100%,39.215686%,14.901961%);fill-opacity:1;" />
<path d="M 124.5 281.5 L 387.5 281.5 L 387.5 311.5 L 124.5 311.5 Z M 124.5 281.5 " style=" stroke:none;fill-rule:nonzero;fill:rgb(0%,37.254902%,88.235294%);fill-opacity:1;" />
<path d="M 256 281.5 L 387.5 281.5 L 387.5 311.5 L 256 311.5 Z M 256 281.5 " style=" stroke:none;fill-rule:nonzero;fill:rgb(0%,25.882353%,61.568627%);fill-opacity:1;" />
</g>
</svg>